<?xml version="1.0" encoding="UTF-8"?>
<svg xmlns="http://www.w3.org/2000/svg" xmlns:xlink="http://www.w3.org/1999/xlink" width="64px" height="64px" viewBox="0 0 64 64" version="1.1">
<g id="surface1">
<path style=" stroke:none;fill-rule:nonzero;fill:rgb(25.098041%,75.294119%,34.117648%);fill-opacity:1;" d="M 32.011719 2.535156 C 15.773438 2.535156 2.558594 15.75 2.558594 31.988281 C 2.558594 48.226562 15.773438 61.441406 32.011719 61.441406 C 48.25 61.441406 61.464844 48.230469 61.464844 31.988281 C 61.464844 15.746094 48.25 2.535156 32.011719 2.535156 Z M 44.476562 45.226562 C 44.109375 45.78125 43.5 46.082031 42.878906 46.082031 C 42.511719 46.082031 42.140625 45.976562 41.8125 45.757812 C 38.648438 43.648438 33.28125 42.238281 28.800781 42.242188 C 24.046875 42.242188 20.484375 43.410156 20.445312 43.421875 C 19.441406 43.761719 18.355469 43.214844 18.019531 42.210938 C 17.683594 41.203125 18.226562 40.113281 19.234375 39.78125 C 19.402344 39.726562 23.429688 38.40625 28.800781 38.402344 C 33.28125 38.398438 39.511719 39.609375 43.945312 42.5625 C 44.828125 43.152344 45.066406 44.34375 44.476562 45.226562 Z M 48.308594 37.367188 C 47.890625 38.035156 47.171875 38.402344 46.441406 38.402344 C 46.042969 38.402344 45.640625 38.296875 45.28125 38.070312 C 39.539062 34.492188 33.640625 33.738281 28.5625 33.78125 C 22.824219 33.832031 18.234375 34.925781 18.15625 34.949219 C 16.996094 35.28125 15.777344 34.601562 15.445312 33.4375 C 15.113281 32.265625 15.792969 31.054688 16.960938 30.722656 C 17.316406 30.621094 21.894531 29.496094 28.160156 29.441406 C 33.875 29.394531 41 30.222656 47.605469 34.339844 C 48.632812 34.980469 48.949219 36.335938 48.308594 37.367188 Z M 52.128906 28.175781 C 51.652344 28.988281 50.796875 29.441406 49.917969 29.441406 C 49.476562 29.441406 49.03125 29.324219 48.625 29.089844 C 41.933594 25.160156 33.800781 24.328125 28.15625 24.320312 C 28.128906 24.320312 28.101562 24.320312 28.074219 24.320312 C 21.25 24.320312 15.992188 25.519531 15.941406 25.535156 C 14.558594 25.847656 13.1875 24.996094 12.867188 23.621094 C 12.546875 22.242188 13.398438 20.867188 14.777344 20.546875 C 15.011719 20.492188 20.628906 19.199219 28.074219 19.199219 C 28.105469 19.199219 28.132812 19.199219 28.164062 19.199219 C 34.441406 19.207031 43.539062 20.164062 51.214844 24.671875 C 52.433594 25.390625 52.84375 26.957031 52.128906 28.175781 Z M 52.128906 28.175781 "/>
</g>
</svg>
